<?xml version="1.0" standalone="no"?>
<!DOCTYPE svg PUBLIC "-//W3C//DTD SVG 20010904//EN"
 "http://www.w3.org/TR/2001/REC-SVG-20010904/DTD/svg10.dtd">
<svg version="1.0" xmlns="http://www.w3.org/2000/svg"
 width="2848.000000pt" height="2848.000000pt" viewBox="0 0 2848.000000 2848.000000"
 preserveAspectRatio="xMidYMid meet">
<metadata>
Created by potrace 1.14, written by Peter Selinger 2001-2017
</metadata>
<g transform="translate(0.000000,2848.000000) scale(0.100000,-0.100000)"
fill="#000000" stroke="none">
<path d="M10398 26047 c-18 -18 -44 -48 -58 -67 -14 -19 -39 -49 -56 -67 -18
-18 -30 -33 -27 -33 2 0 -2 -6 -9 -14 -7 -7 -32 -34 -56 -60 -24 -25 -47 -46
-53 -46 -5 0 -9 -6 -9 -14 0 -7 -18 -30 -40 -50 -22 -20 -38 -36 -35 -36 3 0
-15 -21 -40 -47 -25 -26 -45 -51 -45 -55 0 -5 -7 -8 -15 -8 -8 0 -15 -7 -15
-15 0 -8 -4 -15 -10 -15 -5 0 -16 -12 -24 -27 -8 -16 -15 -25 -16 -21 0 8 -60
-51 -60 -61 0 -3 -9 -13 -20 -21 -11 -8 -20 -18 -20 -22 0 -4 -20 -27 -45 -52
-25 -25 -42 -46 -38 -46 4 0 -3 -7 -15 -16 -12 -8 -22 -22 -22 -31 0 -9 -3
-14 -6 -10 -7 7 -44 -29 -44 -43 0 -5 -9 -15 -20 -22 -11 -7 -20 -19 -20 -26
0 -7 -4 -10 -10 -7 -5 3 -10 -1 -10 -10 0 -9 -4 -14 -9 -11 -5 3 -12 -1 -15
-10 -3 -8 -10 -13 -15 -10 -5 4 -11 1 -13 -6 -5 -14 -145 -19 -256 -9 -41 3
-75 4 -77 0 -3 -3 -26 -3 -52 1 -27 5 -49 4 -51 -1 -2 -5 -8 -7 -13 -3 -11 7
-153 14 -344 17 -79 1 -143 6 -147 12 -5 6 -8 5 -8 -3 0 -10 -5 -10 -21 -1
-12 6 -19 7 -16 2 3 -5 -10 -9 -28 -9 -19 1 -35 3 -35 6 0 3 -30 6 -67 7 -38
1 -196 4 -353 7 -157 3 -341 8 -410 11 -177 6 -180 2 -117 -135 52 -113 69
-151 71 -164 6 -28 28 -101 37 -117 5 -11 14 -28 19 -39 6 -11 10 -28 10 -38
0 -10 4 -22 9 -27 10 -13 64 -146 64 -162 0 -7 4 -13 9 -13 4 0 7 -3 6 -7 -1
-9 3 -21 33 -98 10 -28 19 -58 19 -68 0 -9 5 -17 10 -17 6 0 10 -11 10 -25 0
-14 5 -25 10 -25 6 0 9 -3 9 -7 -1 -5 0 -11 1 -15 1 -5 3 -11 5 -15 7 -26 34
-92 52 -125 8 -16 11 -28 8 -28 -3 0 -1 -9 5 -21 6 -11 13 -30 16 -42 2 -12 8
-23 13 -25 6 -2 7 -10 4 -18 -3 -8 0 -14 6 -14 6 0 8 -7 5 -15 -4 -8 -1 -15 7
-15 7 0 9 -3 6 -6 -3 -4 -1 -16 6 -28 17 -31 18 -96 1 -96 -8 0 -14 -4 -14 -9
0 -6 -96 -43 -120 -46 -3 0 -9 -3 -15 -6 -5 -4 -28 -12 -50 -19 -22 -7 -56
-20 -75 -28 -19 -9 -37 -16 -40 -17 -24 -5 -88 -30 -99 -39 -8 -6 -15 -9 -15
-7 -1 6 -44 -8 -93 -30 -23 -10 -52 -20 -64 -22 -13 -2 -25 -9 -27 -15 -2 -7
-8 -9 -14 -6 -5 4 -20 2 -31 -4 -24 -11 -89 -36 -97 -38 -3 0 -16 -5 -30 -11
-66 -29 -134 -55 -153 -59 -11 -2 -23 -7 -26 -11 -6 -7 -14 -9 -63 -15 -10 -1
-18 -7 -18 -12 0 -5 -3 -7 -6 -3 -4 3 -19 0 -35 -9 -16 -8 -29 -12 -29 -8 0 4
-6 2 -12 -3 -7 -6 -44 -21 -83 -33 -38 -12 -75 -27 -82 -32 -7 -5 -17 -7 -22
-4 -5 4 -12 2 -16 -4 -4 -6 -11 -8 -16 -5 -5 4 -9 2 -9 -3 0 -5 -7 -9 -15 -9
-20 0 -116 -45 -110 -51 3 -3 -3 -11 -13 -18 -15 -10 -19 -29 -21 -103 -1 -49
-4 -103 -6 -118 -2 -15 -6 -71 -10 -123 -3 -52 -8 -112 -11 -132 -2 -20 -6
-79 -9 -130 -3 -51 -8 -111 -10 -133 -11 -123 -15 -170 -20 -270 -3 -60 -7
-126 -10 -145 -4 -35 -10 -111 -20 -265 -9 -146 -15 -210 -21 -235 -3 -14 -7
-63 -9 -110 -6 -138 -14 -243 -20 -270 -4 -14 -7 -31 -9 -38 -1 -7 -9 -21 -18
-31 -9 -11 -19 -28 -23 -40 -3 -12 -13 -21 -21 -21 -8 0 -13 -4 -9 -9 3 -5 -2
-16 -11 -25 -8 -9 -12 -20 -9 -26 3 -5 2 -10 -4 -10 -10 0 -27 -38 -23 -52 1
-5 -2 -8 -7 -8 -7 0 -20 -27 -25 -53 0 -4 -8 -12 -16 -17 -8 -5 -11 -10 -6
-10 4 0 1 -11 -8 -25 -9 -14 -13 -25 -10 -25 4 0 -1 -9 -12 -21 -10 -12 -18
-24 -18 -28 1 -3 -13 -37 -31 -76 -18 -38 -33 -73 -34 -78 0 -4 -8 -22 -18
-40 -9 -17 -17 -34 -18 -37 0 -3 -4 -11 -8 -17 -5 -7 -5 -17 -2 -23 3 -5 1
-10 -4 -10 -6 0 -11 -9 -11 -20 0 -11 -5 -20 -10 -20 -6 0 -9 -3 -8 -7 2 -5
-6 -28 -16 -53 -11 -25 -18 -51 -17 -57 1 -7 -3 -13 -9 -13 -5 0 -10 -8 -10
-18 0 -10 -7 -28 -16 -40 -8 -12 -12 -22 -8 -22 3 0 1 -7 -6 -15 -7 -8 -9 -15
-5 -15 4 0 2 -7 -5 -15 -7 -9 -10 -18 -7 -21 3 -4 -1 -13 -9 -21 -8 -8 -11
-19 -8 -25 4 -6 1 -14 -5 -18 -7 -4 -14 -16 -16 -26 -2 -10 -4 -20 -5 -21 -2
-2 -4 -7 -5 -13 -1 -5 -4 -12 -5 -15 -1 -3 -3 -8 -4 -12 -1 -5 -7 -17 -13 -28
-6 -11 -11 -22 -11 -25 0 -3 -5 -25 -12 -50 -7 -25 -13 -51 -13 -57 0 -7 -4
-13 -8 -13 -4 0 -10 -15 -13 -32 -3 -18 -13 -46 -21 -61 -8 -15 -10 -25 -4
-21 7 4 7 0 0 -12 -12 -24 -23 -54 -28 -79 -2 -10 -9 -23 -16 -27 -6 -4 -9 -8
-4 -8 4 0 1 -13 -8 -30 -8 -16 -15 -31 -14 -32 1 -2 -9 -37 -22 -78 -12 -41
-22 -78 -21 -82 1 -5 -2 -8 -6 -8 -4 0 -9 -11 -10 -26 -1 -14 -6 -34 -12 -44
-5 -10 -10 -28 -10 -39 0 -12 -4 -21 -9 -21 -5 0 -12 -19 -16 -42 -8 -44 -11
-54 -15 -63 -1 -3 -3 -8 -5 -12 -1 -5 -4 -15 -8 -23 -3 -8 -11 -40 -17 -70 -6
-30 -14 -62 -16 -70 -3 -8 -6 -17 -6 -20 0 -3 -6 -25 -14 -50 -7 -24 -11 -46
-9 -48 2 -3 -2 -14 -10 -26 -8 -11 -15 -32 -15 -46 0 -14 -4 -30 -10 -36 -5
-5 -11 -22 -12 -37 -1 -15 -5 -27 -8 -27 -6 0 -10 -25 -13 -72 -1 -14 -6 -24
-11 -21 -5 4 -7 -4 -4 -15 4 -12 3 -22 -2 -22 -10 0 -24 -48 -22 -78 1 -14 -3
-20 -10 -16 -6 4 -8 3 -5 -4 4 -5 -2 -39 -13 -74 -11 -34 -20 -71 -20 -80 0
-10 -4 -18 -8 -18 -4 0 -8 -8 -8 -17 -1 -10 -5 -34 -9 -53 -5 -19 -8 -45 -8
-57 1 -13 -2 -23 -6 -23 -4 0 -7 -15 -7 -32 -1 -41 -7 -71 -16 -78 -5 -5 -18
-56 -20 -87 -1 -7 -6 -13 -11 -13 -6 0 -8 -3 -4 -6 3 -3 1 -18 -4 -32 -5 -14
-10 -40 -11 -59 -1 -18 -5 -33 -9 -33 -4 0 -7 -10 -6 -22 0 -13 -3 -36 -7 -53
-4 -16 -10 -48 -13 -70 -3 -22 -10 -48 -15 -59 -8 -14 -7 -17 4 -10 10 6 11 5
1 -7 -6 -8 -14 -26 -17 -39 -2 -14 -12 -59 -22 -100 -9 -41 -17 -83 -17 -92
-1 -10 -4 -18 -7 -18 -4 0 -7 -6 -7 -12 -1 -38 -16 -125 -24 -140 -5 -10 -7
-18 -5 -18 3 0 1 -11 -4 -25 -7 -18 -6 -25 3 -25 9 0 9 -2 -1 -8 -7 -5 -15
-26 -17 -47 -8 -56 -15 -97 -20 -105 -4 -7 -13 -65 -20 -135 -2 -22 -5 -41 -6
-42 -1 -2 -2 -11 -3 -20 -1 -10 -5 -24 -9 -30 -5 -7 -6 -13 -3 -13 3 0 2 -10
-3 -23 -6 -14 -5 -30 1 -41 8 -14 7 -17 -1 -12 -6 4 -11 0 -12 -11 -3 -46 -7
-88 -9 -88 -1 0 -3 -11 -5 -25 -2 -14 -6 -40 -9 -58 -13 -73 -26 -168 -31
-227 -2 -16 -4 -31 -5 -32 -1 -2 -4 -12 -5 -23 -1 -11 -4 -21 -5 -22 -1 -2 -3
-14 -4 -28 -1 -14 -5 -31 -9 -37 -5 -8 -3 -13 3 -13 6 0 8 -5 3 -12 -4 -7 -8
-33 -9 -57 -1 -25 -6 -83 -10 -130 -4 -47 -7 -94 -8 -103 0 -10 -3 -18 -6 -18
-3 0 -5 -11 -5 -25 0 -14 5 -25 10 -25 6 0 5 -4 -2 -8 -6 -4 -14 -34 -16 -67
-3 -33 -7 -67 -10 -75 -3 -8 -5 -22 -5 -30 0 -30 -12 -121 -17 -130 -4 -6 0
-10 7 -10 10 0 10 -2 0 -8 -6 -5 -12 -19 -11 -33 1 -41 -7 -125 -13 -135 -3
-5 -5 -28 -4 -52 0 -23 -3 -42 -7 -42 -5 0 -5 -4 -2 -10 3 -5 0 -10 -7 -10 -8
0 -9 -3 -3 -8 11 -8 16 -42 6 -42 -12 0 -11 -73 1 -88 10 -13 10 -14 1 -8 -9
5 -13 -1 -14 -21 -3 -67 -8 -128 -9 -128 -1 0 -3 -11 -5 -25 -6 -57 -15 -127
-19 -150 -3 -14 -8 -74 -10 -135 -3 -60 -6 -110 -6 -110 -1 0 -3 -34 -6 -75
-8 -133 -9 -145 -17 -157 -5 -7 -4 -13 2 -13 9 0 7 -37 -3 -47 -3 -3 -1 -16 4
-29 5 -13 6 -24 2 -24 -7 0 -9 -42 -12 -255 -1 -55 -7 -106 -12 -112 -6 -8 -6
-13 -1 -13 6 0 7 -21 2 -52 -10 -77 -7 -1710 3 -1730 6 -12 5 -18 -2 -18 -7 0
-8 -6 0 -19 7 -14 7 -22 0 -26 -6 -4 -7 -11 -3 -17 6 -11 9 -56 15 -211 1 -32
6 -61 10 -63 4 -3 3 -14 -2 -25 -6 -10 -7 -19 -2 -19 10 0 9 -30 -2 -48 -4 -6
-4 -12 1 -12 4 0 9 -21 9 -47 4 -119 8 -169 16 -185 6 -12 5 -18 -2 -18 -6 0
-9 -4 -5 -9 5 -10 14 -92 20 -196 1 -33 4 -62 5 -65 1 -3 2 -22 2 -43 0 -20 4
-40 8 -42 5 -3 6 -14 3 -25 -3 -11 -2 -28 2 -37 7 -17 15 -81 18 -150 1 -18 4
-33 7 -33 3 0 5 -17 4 -37 0 -21 3 -46 8 -55 6 -12 5 -18 -3 -18 -8 0 -8 -4
-1 -13 6 -7 11 -22 11 -32 0 -24 10 -111 17 -145 3 -14 7 -41 10 -60 2 -19 9
-48 14 -65 5 -16 11 -45 12 -62 1 -18 6 -33 11 -33 4 0 6 -4 3 -9 -3 -5 2 -19
12 -31 36 -44 10 -74 -96 -111 -17 -6 -32 -15 -32 -21 0 -6 -7 -8 -15 -5 -8 4
-17 2 -20 -4 -4 -5 -11 -7 -16 -4 -5 4 -9 2 -9 -4 0 -5 -14 -12 -30 -16 -17
-4 -30 -11 -30 -17 0 -6 -3 -9 -6 -5 -4 3 -25 -4 -48 -15 -22 -12 -43 -23 -46
-23 -3 -1 -29 -13 -57 -28 -29 -15 -55 -26 -57 -25 -2 2 -13 -6 -25 -16 -12
-11 -21 -16 -21 -12 0 8 -73 -45 -78 -56 -2 -5 -9 -8 -15 -8 -15 0 -117 -99
-117 -113 0 -6 -3 -8 -6 -4 -6 6 -34 -16 -34 -27 0 -2 -5 -17 -11 -33 -15 -35
-18 -93 -5 -93 5 0 6 -3 3 -7 -4 -3 -2 -12 5 -20 6 -7 8 -16 5 -20 -3 -3 0
-18 9 -34 8 -16 12 -29 8 -29 -4 0 -2 -6 3 -12 6 -7 16 -31 22 -53 18 -60 32
-90 71 -160 10 -18 16 -36 13 -39 -4 -3 -1 -6 6 -6 7 0 9 -5 6 -10 -3 -5 -1
-10 6 -10 7 0 10 -3 6 -6 -3 -4 -1 -12 6 -20 30 -33 35 -42 30 -48 -3 -3 2 -8
11 -12 9 -3 14 -9 11 -14 -2 -4 4 -16 13 -26 10 -10 18 -21 18 -24 0 -3 11
-20 24 -38 14 -19 24 -36 22 -38 -1 -2 9 -16 23 -30 14 -14 25 -29 25 -33 0
-5 17 -27 39 -50 21 -22 36 -42 34 -45 -2 -2 14 -22 35 -44 22 -23 38 -43 36
-45 -3 -2 14 -21 36 -41 22 -20 37 -36 34 -36 -3 0 10 -16 30 -36 20 -20 36
-40 36 -46 0 -5 3 -7 8 -5 9 4 81 -70 74 -78 -3 -3 3 -5 13 -5 10 0 15 -3 12
-6 -7 -7 207 -222 256 -258 14 -11 23 -24 20 -29 -3 -6 -2 -7 4 -4 14 9 96
-66 100 -92 3 -21 0 -22 -24 -16 -16 4 -37 8 -48 10 -11 1 -22 4 -25 5 -3 1
-9 3 -15 4 -5 1 -23 5 -40 9 -44 11 -77 18 -105 22 -14 2 -36 6 -50 9 -121 26
-193 22 -232 -14 -12 -11 -18 -20 -14 -20 5 0 4 -6 -2 -13 -13 -16 -8 -184 7
-242 6 -22 14 -56 17 -75 6 -37 17 -77 43 -150 9 -25 15 -48 13 -53 -1 -4 2
-7 6 -7 5 0 9 -6 10 -12 2 -25 8 -44 28 -88 12 -25 32 -67 45 -95 12 -27 22
-53 21 -57 -1 -5 3 -8 9 -8 5 0 7 -5 4 -10 -3 -6 0 -13 9 -16 8 -3 12 -12 9
-20 -3 -8 0 -14 7 -14 6 0 8 -4 5 -10 -3 -5 -1 -10 4 -10 6 0 11 -9 11 -20 0
-11 5 -20 11 -20 5 0 8 -4 4 -9 -3 -5 5 -17 17 -25 12 -9 19 -16 15 -16 -5 0
2 -18 15 -41 15 -27 19 -42 12 -47 -6 -4 -14 -17 -18 -29 -6 -20 -40 -40 -59
-35 -4 1 -18 -4 -30 -13 -12 -8 -29 -15 -39 -15 -10 0 -18 -4 -18 -10 0 -5 -5
-10 -12 -10 -13 0 -67 -59 -69 -75 -9 -82 5 -130 44 -149 18 -8 28 -16 22 -16
-5 -1 13 -9 40 -19 43 -16 74 -18 228 -15 98 2 175 0 173 -5 -3 -4 1 -8 9 -8
8 0 15 5 15 11 0 6 17 -9 38 -32 21 -23 44 -42 50 -42 7 0 12 -4 12 -8 0 -11
86 -105 228 -250 61 -63 112 -120 112 -125 0 -6 3 -8 6 -5 3 3 41 -29 85 -71
43 -43 79 -76 79 -74 0 3 47 -38 101 -89 16 -16 33 -28 39 -28 5 0 10 -7 10
-15 0 -8 4 -15 10 -15 5 0 25 -15 43 -32 19 -18 49 -44 67 -58 18 -14 44 -35
59 -47 14 -13 29 -23 34 -23 4 0 7 -7 7 -16 0 -8 4 -13 8 -10 5 3 27 -12 50
-33 23 -21 44 -36 46 -33 3 3 8 -3 12 -12 3 -9 10 -13 15 -10 5 3 9 -2 9 -10
0 -8 9 -18 20 -21 11 -3 20 -11 20 -17 0 -6 3 -9 6 -6 6 7 64 -50 64 -63 0 -5
3 -8 8 -7 9 3 62 -50 62 -63 0 -6 5 -7 10 -4 6 3 10 2 10 -3 0 -6 20 -31 43
-56 24 -25 42 -48 40 -50 -3 -2 5 -7 16 -11 12 -3 21 -13 21 -21 0 -8 5 -14
11 -14 5 0 7 -5 3 -12 -4 -6 -3 -8 3 -5 6 4 18 -4 27 -17 8 -14 47 -56 86 -95
38 -39 70 -75 70 -81 0 -6 4 -8 10 -5 5 3 10 -1 10 -9 0 -9 4 -16 9 -16 12 0
71 -58 71 -70 0 -6 6 -10 13 -10 6 0 21 -14 32 -30 11 -16 23 -30 27 -30 3 0
26 -19 50 -43 37 -36 101 -93 198 -177 13 -11 27 -20 32 -20 5 0 6 -4 3 -10
-3 -5 -3 -10 2 -10 4 0 20 -10 35 -23 14 -12 35 -29 45 -37 10 -8 34 -28 53
-43 19 -16 46 -37 60 -48 44 -34 114 -90 138 -110 12 -10 22 -16 22 -14 0 6 5
3 63 -46 20 -17 37 -28 37 -24 0 5 9 -2 20 -15 11 -13 20 -19 20 -14 0 5 5 1
11 -8 5 -10 15 -18 20 -18 6 0 17 -6 24 -12 28 -26 41 -34 75 -54 19 -10 44
-28 57 -39 39 -35 52 -45 60 -46 18 -3 39 -14 57 -31 11 -10 32 -24 48 -30 15
-7 28 -16 28 -20 0 -5 7 -8 15 -8 8 0 15 -5 15 -11 0 -5 4 -8 9 -5 5 3 11 -1
15 -9 3 -8 13 -15 22 -15 10 0 25 -6 33 -14 9 -7 42 -28 73 -45 32 -17 74 -43
94 -56 20 -14 43 -25 50 -25 8 0 14 -3 14 -8 0 -4 17 -15 38 -24 33 -15 63
-31 112 -60 8 -4 27 -13 43 -19 15 -6 27 -15 27 -20 0 -5 9 -9 20 -9 11 0 20
-4 20 -10 0 -5 9 -10 20 -10 11 0 20 -5 20 -11 0 -5 4 -8 9 -4 5 3 12 1 16 -4
7 -13 64 -41 82 -41 7 0 13 -4 13 -10 0 -5 9 -10 20 -10 11 0 20 -4 20 -10 0
-5 3 -9 8 -8 4 1 63 -26 132 -59 124 -61 200 -96 210 -98 8 -2 123 -54 153
-70 20 -10 26 -11 22 -2 -4 6 0 4 8 -5 8 -10 17 -15 21 -11 4 4 10 3 14 -3 8
-11 406 -171 445 -178 7 -1 28 -9 47 -17 19 -8 55 -21 80 -29 25 -7 49 -17 54
-22 6 -4 19 -8 31 -8 12 0 25 -4 31 -10 5 -5 18 -11 29 -13 11 -1 27 -7 35
-12 8 -5 22 -10 30 -10 8 -1 32 -9 54 -18 21 -9 44 -17 50 -17 7 0 17 -5 24
-12 7 -7 12 -9 12 -6 0 4 26 -2 58 -13 31 -11 64 -22 72 -24 8 -2 62 -17 120
-34 92 -26 180 -51 203 -57 4 -1 8 -2 10 -4 2 -2 24 -7 52 -12 11 -2 26 -7 33
-11 6 -5 12 -6 12 -3 0 3 11 1 26 -4 14 -6 39 -12 57 -15 18 -3 41 -9 52 -12
11 -4 28 -8 38 -9 9 -1 18 -2 20 -4 1 -1 9 -3 17 -5 34 -7 200 -45 265 -60 63
-14 110 -23 155 -29 9 -1 21 -5 28 -10 6 -4 12 -5 12 -2 0 3 12 1 26 -4 18 -7
23 -7 18 1 -4 8 -1 8 12 1 17 -9 76 -22 169 -38 17 -3 39 -7 50 -9 11 -2 34
-6 50 -9 17 -3 55 -10 85 -16 51 -10 98 -17 160 -25 14 -2 39 -6 55 -9 32 -6
101 -15 150 -20 17 -2 44 -6 60 -9 17 -3 59 -9 95 -12 36 -4 76 -8 90 -10 30
-4 106 -13 180 -20 30 -3 71 -7 90 -10 34 -5 127 -13 220 -20 25 -2 45 -4 45
-5 0 -1 32 -4 70 -6 39 -1 99 -5 135 -8 36 -2 103 -5 150 -7 47 -1 95 -6 108
-11 12 -4 22 -4 22 1 0 5 18 5 40 1 53 -10 1121 -6 1310 5 80 4 160 8 178 9
17 0 32 3 32 6 0 3 46 5 103 5 56 0 106 2 112 4 5 3 25 6 45 7 52 3 181 14
215 19 17 2 62 6 100 10 39 3 77 8 85 10 8 2 49 7 90 10 41 4 77 9 80 10 3 2
32 6 65 9 33 3 71 8 85 11 14 2 50 7 80 9 30 3 66 8 80 11 35 9 60 12 98 14
18 0 31 4 29 9 -3 4 14 8 36 8 41 2 63 5 122 17 17 4 45 9 63 12 71 11 125 22
150 29 9 3 35 8 57 11 57 8 84 13 93 18 4 3 23 8 42 11 19 3 47 8 63 11 15 3
37 7 50 9 38 7 82 19 92 25 9 5 22 7 88 14 9 1 17 5 17 9 0 4 3 7 8 7 4 -1 9
0 12 1 3 1 14 3 25 5 64 11 94 17 130 27 50 13 72 18 110 25 45 8 60 11 63 13
1 2 5 3 10 4 4 1 16 5 27 8 11 4 36 9 55 12 19 3 54 12 78 20 23 8 42 13 42 9
0 -3 6 -1 13 5 6 5 28 13 47 17 19 4 46 12 60 18 31 13 29 12 65 21 61 16 65
18 60 27 -3 5 1 6 9 3 8 -3 39 2 68 12 29 10 56 17 61 16 4 -1 7 2 7 6 0 5 7
9 15 10 8 1 22 3 30 4 8 1 15 4 15 8 0 4 7 7 15 8 8 1 22 3 30 4 8 1 15 6 15
11 0 6 3 7 7 4 3 -4 13 -1 21 6 13 10 14 9 7 -2 -5 -8 7 -4 25 9 18 13 30 19
26 12 -5 -8 -2 -10 8 -6 9 3 16 10 16 16 0 5 4 7 8 4 5 -3 21 1 36 9 15 8 30
14 34 13 4 -1 15 2 25 5 9 4 25 10 35 14 9 3 20 5 25 5 4 -1 7 3 7 9 0 5 4 8
9 4 5 -3 12 -1 16 5 4 6 11 8 16 5 5 -4 9 -2 9 3 0 5 6 9 13 9 14 1 80 26 87
33 6 6 30 12 48 13 6 0 12 4 12 9 0 4 5 8 11 8 6 0 25 6 42 14 18 8 58 24 90
37 31 12 57 26 57 31 0 4 7 5 15 2 8 -4 15 -2 15 3 0 5 6 10 13 10 6 0 39 13
72 28 101 46 154 68 168 69 4 1 12 8 17 16 5 8 10 11 10 6 0 -5 7 -3 15 4 8 7
15 10 15 6 0 -3 17 4 38 17 20 13 39 24 42 24 18 0 50 16 50 25 0 6 3 8 7 5 3
-4 21 3 40 14 18 11 33 18 33 15 0 -4 18 5 40 19 22 14 40 22 40 19 0 -4 8 0
18 8 9 9 27 19 40 22 12 4 22 12 22 17 0 6 5 7 10 4 6 -3 10 -1 10 5 0 6 5 8
10 5 6 -3 10 -2 10 2 0 5 17 15 38 22 20 8 39 17 42 20 12 14 88 50 94 44 3
-3 6 -1 6 6 0 7 14 17 30 22 17 6 30 15 30 21 0 5 4 7 9 4 5 -4 11 -3 13 1 1
5 29 21 61 38 31 16 57 33 57 38 0 4 5 5 10 2 6 -3 10 -1 10 4 0 6 5 11 11 11
6 0 30 14 54 30 24 17 48 30 52 30 5 0 18 7 28 15 11 9 45 31 75 50 30 19 60
39 67 45 7 5 16 10 21 10 4 0 18 9 30 20 12 12 22 18 22 15 0 -4 12 3 26 14
15 12 33 21 41 21 8 0 12 4 9 9 -3 5 9 16 27 25 49 25 70 39 111 74 8 6 20 12
26 12 5 0 10 5 10 10 0 6 6 10 14 10 8 0 22 10 30 22 9 12 16 19 16 15 0 -5 6
-2 13 5 8 7 35 26 60 42 26 17 47 34 47 39 0 4 4 6 9 2 5 -3 13 4 16 15 4 12
11 20 17 18 6 -2 25 10 44 27 18 16 47 41 65 55 18 14 40 32 48 40 9 8 32 27
51 41 19 15 49 39 65 53 17 15 47 41 69 59 21 18 56 49 77 69 22 21 39 35 39
33 0 -5 111 97 177 163 29 28 57 52 63 52 5 0 10 4 10 9 0 14 78 90 84 83 3
-3 6 -1 6 5 0 11 26 42 103 123 26 28 47 53 47 57 0 3 11 16 24 28 14 13 22
26 19 29 -4 3 2 6 12 6 10 0 15 3 12 6 -4 4 1 14 11 23 10 9 21 24 25 34 4 10
11 15 17 12 5 -3 10 -2 10 3 0 8 28 37 128 131 18 17 37 31 42 31 6 0 10 7 10
16 0 8 4 13 9 9 5 -3 18 6 30 20 11 15 21 25 24 23 4 -3 112 87 136 114 8 9
18 15 23 12 4 -3 8 3 8 12 0 10 3 15 6 12 3 -4 20 8 39 25 45 44 105 96 105
92 0 -2 18 14 39 35 21 21 41 37 43 34 3 -2 10 6 17 19 7 12 30 33 51 46 22
14 37 27 35 29 -3 3 9 15 25 27 16 12 27 25 23 28 -3 4 1 7 10 7 8 0 19 9 22
20 4 11 10 18 14 15 4 -2 14 7 21 20 7 13 16 23 19 21 7 -3 40 30 42 42 1 4 4
6 8 5 4 -1 16 12 26 28 11 16 26 29 33 29 7 0 11 4 7 9 -3 5 4 12 15 16 11 3
20 10 20 14 0 4 18 25 39 46 22 22 37 44 34 49 -3 5 -2 6 4 3 9 -5 53 35 53
48 0 5 49 54 55 55 3 0 6 3 6 8 1 4 20 20 43 37 36 27 46 30 107 27 36 -1 77
-5 90 -8 58 -12 249 -6 249 9 0 4 5 5 10 2 6 -3 10 -1 10 4 0 6 4 11 10 11 15
0 50 33 44 42 -3 4 -1 8 4 8 15 0 28 65 23 118 -2 19 -101 113 -112 107 -5 -4
-9 -1 -9 5 0 6 -4 8 -10 5 -5 -3 -10 -1 -10 4 0 6 -3 10 -7 10 -23 -4 -35 4
-52 32 -15 25 -17 37 -9 70 6 21 15 39 20 39 5 0 7 4 3 9 -3 5 -1 12 5 16 6 4
8 10 5 15 -3 5 2 15 10 24 9 8 16 19 15 23 0 20 23 73 32 73 6 0 9 3 5 6 -3 4
6 29 21 58 32 60 87 198 84 209 -1 4 3 7 8 7 5 0 9 3 9 8 -1 4 0 9 1 12 1 3 3
12 5 20 2 8 8 29 13 47 6 17 8 34 4 37 -3 3 1 6 8 6 7 0 11 3 7 6 -3 3 -2 17
3 30 13 32 21 70 25 117 2 21 10 46 17 55 11 13 11 15 -2 7 -12 -7 -13 -6 -3
6 14 17 25 141 16 177 -3 14 -11 21 -19 18 -7 -3 -14 0 -16 6 -9 27 -146 28
-268 3 -47 -9 -94 -18 -105 -20 -11 -1 -40 -8 -65 -14 -25 -6 -62 -11 -82 -11
-33 0 -38 3 -38 23 0 14 10 29 28 39 15 9 82 71 150 137 67 67 126 121 130
121 12 0 382 385 382 397 0 5 46 61 85 104 8 9 15 19 15 23 0 4 6 14 13 21 29
33 37 45 37 54 0 5 6 16 13 23 24 26 66 86 69 99 2 7 10 21 19 32 9 10 25 35
35 55 10 20 25 45 33 55 8 9 11 17 8 17 -4 0 4 19 17 43 13 23 26 51 28 62 1
11 9 26 16 33 6 7 12 21 12 30 0 10 6 26 14 37 7 11 14 23 15 27 2 8 4 18 19
63 20 65 2 146 -43 191 -14 14 -25 30 -25 36 0 6 -3 9 -6 6 -3 -3 -15 4 -28
16 -44 42 -74 64 -80 59 -3 -4 -6 0 -6 7 0 7 -3 10 -7 7 -3 -4 -13 2 -20 13
-8 11 -18 18 -23 15 -5 -3 -13 3 -19 12 -6 10 -11 15 -11 10 0 -4 -18 4 -40
18 -22 14 -46 25 -55 25 -8 0 -15 5 -15 11 0 6 -7 9 -15 5 -9 -3 -15 0 -15 9
0 8 -3 14 -7 13 -7 -1 -30 7 -83 29 -8 3 -21 7 -29 9 -8 1 -17 6 -20 11 -3 4
-17 10 -31 12 -14 1 -28 7 -31 13 -3 5 -9 9 -13 8 -13 -3 -81 28 -103 48 -23
20 -31 56 -14 67 6 3 6 18 1 35 -5 17 -5 28 -1 26 4 -3 8 37 9 87 1 81 6 132
13 132 3 0 7 34 13 105 3 36 8 74 10 85 2 11 7 51 11 88 3 37 8 78 11 90 2 12
6 42 9 67 2 25 8 72 11 105 4 33 7 72 8 88 1 15 3 27 6 27 4 0 6 10 6 23 1 22
12 142 20 202 2 17 4 69 5 118 1 57 5 87 13 87 7 0 8 3 0 8 -5 4 -9 23 -7 42
3 34 4 46 2 73 0 6 2 37 5 67 3 30 8 107 11 170 3 63 8 149 10 190 3 41 6 118
8 170 1 52 6 100 10 107 4 6 4 14 -1 17 -8 4 -9 84 -2 111 1 6 1 12 0 15 -7
17 -4 70 5 70 6 0 7 3 0 8 -13 9 -15 62 -2 62 6 0 5 5 -1 13 -6 7 -7 18 -2 27
4 7 4 24 0 36 -6 15 -5 26 1 30 7 4 7 10 0 18 -6 7 -8 15 -6 18 10 10 13 78 4
84 -5 3 -5 13 1 23 6 12 5 22 -3 31 -9 10 -9 11 1 5 11 -6 12 -3 3 13 -8 14
-8 23 -1 27 8 5 7 11 -1 21 -9 11 -9 14 1 14 9 0 9 4 2 13 -7 8 -7 18 -2 27 5
8 5 21 1 29 -9 20 -7 73 3 89 4 7 3 12 -2 12 -10 0 -10 39 1 56 3 6 3 14 0 18
-12 12 -11 56 1 56 7 0 8 3 1 8 -6 4 -11 21 -11 37 0 17 5 33 11 37 7 5 7 8
-1 8 -12 0 -13 58 -1 78 5 6 4 12 -1 12 -13 0 -10 63 3 72 7 5 7 8 -1 8 -14 0
-15 80 0 80 7 0 7 3 -2 8 -7 5 -10 22 -8 40 2 18 -1 32 -7 32 -5 0 -4 7 3 15
7 8 9 15 4 15 -5 0 -9 33 -8 72 0 40 -3 82 -6 93 -4 11 -4 30 1 43 5 12 5 22
1 22 -8 0 -9 16 -12 163 -2 54 -7 100 -11 103 -5 2 -4 16 1 29 5 14 6 25 2 25
-4 0 -8 42 -8 93 -4 207 -23 450 -38 459 -8 5 -7 8 2 8 10 0 12 10 7 36 -3 20
-8 41 -12 47 -4 6 -1 7 7 2 8 -5 11 -4 6 3 -7 12 -15 62 -20 142 -3 30 -5 55
-6 55 -3 0 -8 49 -11 97 -1 26 -5 46 -8 44 -3 -2 -6 8 -7 22 -1 53 -13 153
-19 162 -3 6 0 10 7 10 8 0 9 3 3 8 -5 4 -11 35 -13 70 -2 35 -7 75 -13 88 -6
17 -6 23 1 19 6 -4 7 2 1 18 -9 22 -13 56 -26 207 -4 36 -10 76 -15 90 -5 14
-11 43 -14 65 -9 63 -19 168 -20 193 0 12 -3 22 -6 22 -3 0 -6 10 -7 23 0 12
-3 45 -7 72 -3 28 -9 70 -12 95 -3 25 -7 52 -10 61 -4 16 -12 68 -18 119 -11
95 -19 146 -24 155 -4 6 -8 19 -9 30 -9 63 -12 75 -18 84 -3 6 -1 11 6 11 8 0
8 4 1 13 -5 6 -12 28 -15 47 -3 19 -10 47 -15 61 -6 15 -8 29 -5 33 3 3 2 13
-2 23 -8 19 -12 38 -16 91 -2 17 -6 32 -9 32 -3 0 -6 18 -8 40 -1 22 -7 51
-12 66 -7 16 -7 23 0 19 6 -4 6 5 -1 22 -6 15 -12 44 -14 63 -1 19 -3 35 -5
35 -1 0 -3 11 -6 25 -4 28 -16 91 -19 103 -2 4 -4 10 -5 15 -1 4 -2 19 -2 35
-1 15 -4 27 -8 27 -5 0 -7 11 -5 25 1 14 -1 25 -5 25 -5 0 -6 9 -3 20 3 11 1
20 -3 20 -5 0 -10 10 -10 23 -3 43 -8 77 -14 77 -3 0 -5 13 -6 29 -1 16 -5 37
-9 47 -4 11 -9 26 -11 34 -12 64 -52 235 -54 235 -3 0 -10 41 -12 68 0 15 -4
27 -7 27 -3 0 -6 10 -7 23 -3 56 -9 87 -18 87 -5 0 -7 2 -4 6 3 3 1 22 -4 42
-5 20 -11 48 -13 62 -2 14 -6 36 -10 50 -3 14 -8 35 -11 47 -2 12 -8 33 -13
45 -10 26 -11 32 -11 54 0 9 -5 12 -12 8 -10 -6 -10 -4 0 8 10 12 10 17 1 20
-7 2 -13 19 -14 38 -2 19 -8 49 -15 65 -6 17 -14 41 -16 55 -3 14 -8 34 -11
45 -4 11 -6 25 -5 32 2 6 -2 14 -7 18 -6 3 -8 12 -4 20 3 8 0 15 -6 15 -6 0
-10 3 -9 8 4 15 -25 152 -33 152 -4 0 -10 7 -13 16 -4 10 -2 13 6 8 7 -5 8 -3
2 7 -9 14 -14 34 -16 57 -1 6 -5 12 -10 12 -5 0 -6 5 -3 10 3 6 2 10 -2 10 -5
0 -10 11 -11 25 -3 35 -6 49 -14 55 -3 3 -8 19 -10 35 -2 17 -6 32 -10 35 -3
3 -8 19 -10 35 -2 17 -6 33 -10 36 -5 3 -9 17 -10 32 -1 15 -6 27 -10 27 -4 0
-7 3 -7 8 3 15 -14 73 -22 78 -5 3 -7 10 -3 15 3 5 0 17 -8 26 -10 13 -10 15
0 9 7 -4 3 9 -8 29 -11 20 -18 40 -15 46 4 5 1 9 -5 9 -6 0 -8 5 -5 10 3 6 1
10 -6 10 -7 0 -10 2 -7 5 3 4 -8 43 -24 88 -16 45 -29 89 -30 97 0 8 -5 21
-11 28 -5 6 -6 12 -2 12 5 0 0 10 -11 22 -10 12 -14 18 -7 15 8 -5 7 2 -3 21
-8 16 -15 41 -16 56 -1 14 -6 26 -11 26 -4 0 -6 4 -2 9 3 5 1 12 -5 16 -6 4
-8 11 -5 16 4 5 1 9 -4 9 -6 0 -11 11 -11 24 0 13 -5 26 -11 28 -6 2 -13 16
-14 31 -2 16 -9 34 -15 42 -7 8 -9 15 -5 15 5 0 1 8 -8 18 -10 10 -14 22 -10
26 4 4 3 10 -2 14 -11 8 -36 69 -38 90 0 6 -3 12 -7 12 -3 0 -6 10 -7 22 -1
11 -6 24 -10 27 -4 3 -9 13 -11 21 -2 8 -9 29 -17 45 -16 36 -32 76 -35 90 -1
6 -9 19 -18 29 -13 15 -14 18 -2 12 8 -4 6 0 -4 8 -11 9 -17 16 -14 16 4 0 0
20 -9 45 -8 25 -18 45 -22 45 -4 0 -8 6 -8 13 0 16 -48 117 -79 168 -13 20
-20 40 -17 43 4 3 1 6 -6 6 -7 0 -10 4 -7 9 3 5 -1 14 -9 21 -8 7 -15 16 -15
21 0 5 -11 27 -24 48 -14 21 -22 42 -19 45 4 3 1 6 -6 6 -7 0 -10 4 -7 9 3 5
-1 12 -10 15 -8 3 -12 11 -9 17 4 5 -1 20 -12 31 -10 12 -12 18 -4 13 9 -5 8
0 -3 18 -9 13 -16 29 -15 33 1 5 0 11 -1 14 -7 20 -16 85 -25 200 -3 41 -8 95
-10 120 -3 25 -7 90 -11 145 -3 55 -8 118 -10 140 -2 22 -6 67 -8 100 -2 34
-7 92 -11 130 -3 39 -8 95 -11 125 -2 30 -6 84 -9 120 -2 36 -7 110 -10 165
-4 55 -8 123 -11 150 -8 94 -15 200 -19 270 -12 242 -17 321 -23 330 -4 5 -7
14 -7 18 0 11 -62 37 -69 30 -3 -4 -6 -2 -6 4 0 5 -19 15 -42 22 -23 7 -53 18
-67 24 -14 5 -30 11 -36 13 -20 5 -80 27 -100 36 -12 5 -27 10 -35 12 -15 3
-31 9 -67 23 -10 4 -23 7 -29 8 -6 0 -19 6 -28 14 -9 7 -16 11 -16 8 0 -6
-106 30 -125 41 -5 4 -14 7 -20 7 -12 1 -44 13 -67 26 -10 5 -22 9 -27 9 -5 0
-22 5 -38 12 -15 6 -30 12 -33 12 -3 1 -11 5 -18 10 -7 4 -16 5 -19 2 -3 -3
-11 -2 -18 4 -12 10 -335 129 -375 137 -14 3 -34 12 -45 19 -11 8 -30 14 -42
14 -13 0 -23 5 -23 11 0 5 -4 8 -9 4 -5 -3 -12 -1 -16 5 -3 5 -17 10 -30 10
-13 0 -26 4 -29 9 -3 5 -21 12 -40 15 -46 9 -83 41 -67 59 6 8 8 17 4 20 -3 4
-1 7 6 7 7 0 10 4 6 9 -3 5 2 17 11 25 8 9 12 16 8 16 -3 0 -2 6 4 13 13 15
95 218 95 235 0 6 4 12 9 12 4 0 8 5 8 10 0 6 7 27 16 48 10 20 19 47 21 60 2
13 14 47 27 75 13 29 31 73 40 99 9 26 20 56 25 65 5 10 20 47 32 83 13 36 29
76 36 89 6 14 10 28 7 33 -3 4 0 8 5 8 6 0 10 3 10 8 -1 4 0 10 1 15 1 4 3 10
5 15 1 4 7 21 14 37 7 17 12 31 12 33 -1 1 6 16 14 32 8 16 15 32 15 35 0 3 0
6 1 8 0 1 2 10 4 19 2 10 10 25 19 34 18 18 21 28 5 18 -6 -3 -3 6 7 22 11 15
18 31 18 34 -2 7 14 51 26 73 6 10 8 22 5 27 -4 6 -1 10 4 10 13 0 10 19 -4
36 -7 9 -12 9 -17 0 -5 -7 -8 -8 -8 0 0 7 -46 10 -147 8 -769 -15 -975 -21
-1010 -29 -12 -3 -25 0 -28 5 -4 6 -11 7 -17 4 -6 -4 -54 -8 -107 -10 -53 -3
-102 -6 -108 -9 -7 -2 -13 1 -13 7 0 7 -4 7 -12 0 -7 -5 -44 -9 -83 -8 -38 1
-78 -2 -87 -6 -10 -5 -18 -5 -18 -1 0 10 -41 10 -56 0 -5 -3 -16 -2 -23 2 -7
5 -28 5 -47 1 -20 -5 -34 -4 -34 1 0 6 -7 6 -17 1 -21 -9 -124 -8 -172 3 -19
4 -46 18 -60 31 -14 13 -29 24 -32 24 -4 0 -9 9 -12 21 -4 13 -10 18 -18 13
-7 -4 -10 -3 -5 4 3 6 -3 17 -14 25 -11 7 -17 17 -13 20 3 4 -1 7 -10 7 -10 0
-17 4 -17 8 0 5 -22 33 -50 62 -27 29 -50 56 -50 60 0 4 -11 16 -25 28 -14 12
-25 26 -25 32 0 5 -7 10 -16 10 -8 0 -12 5 -9 10 3 6 2 10 -4 10 -5 0 -13 9
-16 20 -4 11 -11 18 -16 15 -5 -4 -9 -3 -9 2 0 4 -12 22 -26 38 -74 87 -142
163 -166 188 -16 16 -28 33 -28 39 0 6 -3 9 -6 5 -5 -5 -22 12 -94 96 -8 10
-29 32 -45 50 -17 17 -46 52 -65 77 -84 109 -121 136 -140 100 -5 -9 -8 -26
-6 -36 2 -11 7 -46 11 -79 4 -32 9 -68 11 -80 2 -11 6 -42 9 -70 3 -27 6 -59
9 -70 3 -18 7 -45 22 -145 2 -14 6 -36 9 -50 3 -14 6 -42 7 -62 1 -20 4 -36 7
-34 3 2 7 -17 7 -42 2 -70 9 -127 34 -292 5 -36 12 -83 15 -105 6 -43 12 -82
20 -130 3 -16 8 -52 11 -80 2 -27 7 -66 10 -85 10 -65 13 -85 29 -205 9 -66
18 -138 21 -160 2 -22 6 -53 8 -70 7 -48 18 -157 21 -195 1 -19 4 -36 5 -37 3
-4 7 -19 9 -34 1 -11 145 -7 511 15 140 8 355 17 515 21 83 3 173 7 200 10
116 12 126 12 141 -2 20 -20 18 -69 -6 -130 -11 -29 -17 -53 -14 -53 3 0 -2
-7 -10 -16 -9 -8 -14 -19 -11 -24 3 -5 0 -10 -5 -12 -6 -2 -12 -13 -13 -26 0
-12 -5 -22 -9 -22 -4 0 -8 -9 -8 -20 0 -11 -5 -20 -11 -20 -5 0 -8 -4 -4 -9 3
-5 1 -12 -5 -16 -6 -4 -8 -11 -4 -16 3 -5 0 -16 -6 -24 -7 -8 -10 -15 -6 -15
4 0 -1 -11 -10 -25 -9 -14 -13 -25 -9 -25 4 0 2 -7 -5 -15 -6 -8 -9 -19 -5
-25 3 -5 2 -10 -3 -10 -5 0 -17 -25 -27 -55 -9 -30 -21 -55 -26 -55 -6 0 -9
-6 -8 -12 1 -7 -3 -26 -9 -41 -7 -16 -12 -33 -12 -38 0 -5 -5 -9 -11 -9 -5 0
-8 -4 -4 -9 3 -5 1 -20 -4 -33 -11 -26 -20 -55 -22 -66 0 -4 -5 -13 -11 -19
-7 -9 -7 -13 1 -13 6 0 11 -7 11 -15 0 -8 15 -20 33 -28 133 -59 179 -77 192
-77 8 0 15 -4 15 -10 0 -5 9 -10 19 -10 11 0 23 -5 26 -10 4 -6 10 -8 15 -5 5
3 11 1 15 -5 4 -6 11 -8 16 -5 5 4 9 1 9 -4 0 -6 7 -11 15 -11 8 0 23 -4 33
-9 9 -5 44 -20 77 -33 33 -12 71 -29 85 -38 13 -8 24 -14 25 -12 0 4 40 -11
98 -36 23 -11 66 -27 95 -38 28 -10 52 -21 52 -24 0 -4 6 -7 13 -7 6 0 37 -12
67 -26 30 -14 59 -25 63 -25 19 -1 47 -46 41 -65 -10 -31 -45 -87 -55 -87 -5
0 -9 -7 -9 -15 0 -8 -4 -15 -8 -15 -4 0 -16 -15 -27 -32 -10 -18 -21 -35 -24
-38 -4 -3 -28 -34 -53 -70 -26 -36 -52 -71 -58 -77 -6 -7 -7 -13 -3 -13 4 0 0
-5 -10 -11 -9 -5 -17 -17 -17 -24 0 -8 -5 -15 -11 -15 -5 0 -7 -4 -4 -10 3 -5
-2 -10 -11 -10 -10 0 -15 -3 -11 -6 6 -6 -99 -152 -135 -187 -10 -10 -18 -23
-18 -29 0 -6 -13 -23 -29 -39 -16 -15 -27 -30 -23 -33 3 -3 -1 -6 -8 -6 -7 0
-11 -3 -7 -6 5 -5 -10 -27 -40 -59 -7 -8 -13 -18 -13 -24 0 -5 -10 -17 -22
-25 -12 -9 -19 -16 -15 -16 6 0 -12 -26 -41 -56 -7 -8 -11 -14 -7 -14 7 0 -12
-24 -47 -57 -15 -14 -26 -29 -24 -32 2 -3 -2 -12 -10 -19 -8 -7 -14 -10 -14
-6 0 4 -13 -9 -29 -29 -15 -20 -31 -34 -34 -31 -3 3 -8 -4 -12 -15 -3 -12 -11
-19 -16 -16 -5 4 -9 -1 -9 -9 0 -9 -5 -16 -10 -16 -6 0 -21 -11 -34 -25 -13
-13 -26 -21 -30 -17 -4 4 -6 3 -5 -3 4 -12 -249 -265 -264 -265 -6 0 -8 -2 -5
-5 3 -3 -60 -71 -139 -150 -79 -80 -142 -145 -140 -145 2 0 -15 -20 -39 -45
-23 -25 -47 -45 -53 -45 -7 0 -9 -4 -6 -10 3 -5 1 -10 -4 -10 -6 0 -11 -4 -11
-10 0 -5 -27 -36 -60 -70 -33 -33 -58 -60 -56 -60 3 0 -13 -18 -34 -39 -22
-22 -40 -43 -40 -47 0 -3 -11 -17 -25 -30 -14 -13 -25 -25 -25 -28 0 -3 -12
-18 -28 -34 -49 -50 -102 -119 -102 -132 0 -7 -3 -10 -7 -7 -3 4 -19 -11 -35
-33 -17 -22 -34 -40 -39 -40 -6 0 -8 -4 -5 -9 3 -5 -1 -14 -9 -21 -8 -7 -15
-19 -15 -28 0 -8 -3 -13 -6 -9 -4 3 -22 -17 -42 -46 -19 -29 -41 -56 -49 -60
-7 -4 -13 -13 -13 -20 0 -7 -9 -18 -20 -25 -11 -7 -20 -16 -20 -22 0 -5 -14
-23 -30 -40 -17 -17 -28 -35 -25 -41 4 -5 2 -9 -4 -9 -6 0 -25 -22 -43 -50
-18 -27 -36 -50 -41 -50 -4 0 -5 -4 -2 -10 3 -5 1 -10 -4 -10 -6 0 -11 -7 -11
-16 0 -8 -4 -13 -8 -10 -4 2 -20 -15 -36 -40 -15 -24 -32 -44 -36 -44 -5 0
-11 -8 -14 -17 -3 -10 -24 -38 -46 -63 -22 -25 -43 -54 -46 -64 -4 -11 -10
-24 -15 -30 -42 -50 -49 -61 -49 -73 0 -8 -3 -12 -7 -10 -5 3 -14 -1 -21 -9
-7 -8 -10 -14 -7 -14 8 0 -54 -81 -70 -92 -6 -5 -6 -8 0 -8 6 0 2 -5 -8 -11
-9 -6 -15 -14 -12 -20 4 -5 1 -9 -5 -9 -6 0 -14 -8 -17 -17 -4 -10 -25 -44
-47 -77 -23 -32 -45 -66 -51 -75 -5 -9 -25 -35 -42 -58 -18 -22 -33 -46 -33
-52 0 -6 -4 -11 -10 -11 -5 0 -10 -4 -10 -10 0 -13 -44 -78 -80 -118 -17 -19
-30 -40 -30 -48 0 -8 -4 -14 -10 -14 -5 0 -10 -7 -10 -15 0 -8 -5 -15 -11 -15
-5 0 -7 -4 -4 -10 3 -5 1 -10 -5 -10 -6 0 -8 -4 -5 -10 3 -5 2 -10 -3 -10 -5
0 -15 -12 -23 -27 -8 -16 -18 -33 -24 -40 -5 -7 -15 -18 -21 -26 -6 -7 -15
-23 -18 -35 -4 -12 -11 -22 -16 -22 -5 0 -12 -10 -16 -22 -3 -12 -13 -28 -20
-36 -8 -7 -12 -17 -9 -22 3 -4 -2 -10 -10 -14 -8 -3 -15 -12 -15 -20 0 -7 -7
-16 -15 -20 -8 -3 -15 -14 -15 -25 0 -11 -4 -22 -9 -26 -6 -3 -20 -27 -33 -53
-13 -26 -27 -50 -31 -53 -5 -3 -9 -10 -9 -15 -2 -23 -11 -44 -19 -44 -5 0 -9
-6 -9 -13 0 -7 -10 -21 -22 -31 -21 -19 -22 -18 -57 21 -20 22 -49 63 -66 91
-16 28 -34 52 -38 52 -5 0 -6 4 -3 9 5 7 -3 20 -44 68 -5 7 -10 17 -10 22 0 6
-9 16 -20 23 -11 7 -20 17 -20 22 0 5 -13 22 -30 37 -16 16 -28 29 -25 29 2 0
-13 17 -35 39 -21 21 -36 41 -33 45 4 3 2 6 -4 6 -13 0 -93 79 -93 91 0 5 -6
8 -12 7 -7 -2 -12 3 -10 10 1 6 -4 12 -12 12 -7 0 -19 7 -26 15 -7 9 -15 14
-17 12 -2 -3 -17 7 -34 22 -30 26 -83 60 -129 83 -14 7 -27 15 -30 19 -10 13
-68 38 -74 32 -3 -4 -6 -1 -6 5 0 7 -7 12 -15 12 -8 0 -15 5 -15 11 0 5 -4 7
-10 4 -5 -3 -10 -1 -10 4 0 6 -3 10 -7 10 -5 -1 -11 0 -15 1 -5 1 -11 3 -15 4
-5 1 -26 10 -48 20 -22 10 -47 19 -55 21 -8 2 -15 4 -15 5 0 1 -7 3 -15 5 -8
2 -33 9 -55 15 -22 6 -47 12 -55 14 -8 3 -42 12 -75 21 -33 9 -71 18 -85 19
-14 2 -47 9 -75 15 -27 7 -77 13 -111 14 -55 2 -65 -1 -86 -24 -31 -34 -48
-68 -50 -104 -3 -41 10 -132 28 -190 22 -75 20 -85 -21 -85 -19 0 -35 5 -35
10 0 6 -6 10 -12 10 -15 1 -68 45 -68 57 0 8 -36 43 -45 43 -2 0 -21 15 -41
34 -21 19 -41 33 -44 31 -4 -2 -13 5 -20 16 -8 10 -20 19 -26 19 -6 0 -17 7
-24 15 -7 8 -16 12 -21 9 -5 -3 -9 -1 -9 4 0 5 -22 21 -50 34 -27 14 -47 28
-43 31 3 4 -3 7 -15 7 -12 0 -22 5 -22 10 0 6 -5 10 -10 10 -6 0 -65 26 -133
58 -67 32 -149 69 -182 81 -33 13 -73 29 -90 36 -51 21 -160 56 -190 61 -5 1
-13 3 -17 4 -5 1 -11 3 -15 4 -5 2 -26 7 -48 14 -22 6 -53 13 -70 15 -16 3
-48 9 -70 15 -22 6 -59 14 -82 17 -23 3 -57 8 -75 11 -37 6 -53 8 -183 24
-198 25 -718 14 -915 -20 -30 -5 -71 -12 -90 -15 -29 -4 -67 -12 -102 -21 -5
-1 -9 -2 -10 -4 -2 -1 -12 -3 -22 -5 -60 -11 -168 -41 -225 -62 -36 -14 -70
-26 -76 -27 -5 -1 -28 -11 -50 -21 -22 -10 -46 -19 -54 -21 -8 -1 -17 -8 -21
-15 -4 -6 -12 -9 -18 -5 -6 3 -12 3 -14 -2 -1 -4 -16 -17 -32 -30 -16 -12 -25
-22 -20 -22 5 0 3 -4 -5 -9 -8 -5 -14 -26 -14 -47 0 -50 4 -65 26 -85 9 -9 17
-21 17 -27 0 -6 9 -16 19 -22 11 -5 25 -16 33 -23 18 -17 72 -51 76 -48 2 1
11 -6 20 -17 9 -10 23 -17 31 -14 8 3 11 0 7 -7 -5 -7 2 -11 19 -11 14 0 33
-4 43 -9 9 -4 43 -20 75 -35 41 -18 57 -31 57 -45 0 -11 -4 -22 -9 -25 -8 -5
-163 -38 -226 -49 -30 -5 -139 -40 -145 -46 -3 -3 -10 -7 -16 -8 -6 -1 -24 -4
-39 -7 -16 -3 -31 -9 -34 -13 -3 -4 -17 -10 -31 -11 -14 -2 -26 -8 -28 -13 -2
-5 -12 -9 -22 -9 -9 0 -23 -7 -30 -15 -7 -9 -15 -13 -18 -11 -6 6 -204 -94
-214 -109 -4 -5 -8 -7 -8 -3 0 4 -31 -13 -69 -37 -38 -25 -74 -45 -79 -45 -6
0 -12 -4 -14 -9 -1 -4 -30 -23 -63 -41 -33 -18 -79 -43 -102 -56 -24 -13 -43
-20 -44 -16 -4 37 -12 68 -18 72 -14 10 -52 70 -44 70 4 0 3 4 -2 8 -16 11
-88 125 -74 116 7 -4 4 5 -7 19 -10 15 -23 27 -27 27 -5 0 -6 4 -2 9 3 5 -2
17 -11 25 -8 9 -13 16 -9 16 5 0 -1 9 -35 49 -8 10 -16 24 -18 31 -3 12 -59
99 -71 110 -3 3 -12 17 -20 33 -8 15 -18 27 -23 27 -5 0 -6 4 -3 10 3 5 -3 15
-14 21 -11 7 -17 19 -13 27 3 9 1 13 -4 9 -5 -3 -15 7 -22 23 -7 15 -24 40
-37 54 -14 15 -25 31 -25 37 0 5 -9 18 -20 29 -12 12 -18 25 -15 30 4 6 -1 10
-10 10 -9 0 -14 4 -10 9 3 5 -7 19 -21 30 -15 12 -24 21 -20 21 4 0 -2 12 -13
26 -12 15 -21 32 -21 39 0 7 -7 16 -16 19 -8 3 -13 10 -10 14 3 5 -4 14 -14
22 -10 8 -17 17 -14 22 3 4 1 8 -5 8 -5 0 -12 8 -15 18 -3 10 -23 36 -44 59
-21 22 -36 45 -34 52 2 6 -3 11 -12 11 -9 0 -16 6 -16 13 0 7 -9 23 -19 34
-11 12 -17 23 -14 27 3 3 -2 8 -11 12 -9 3 -16 11 -16 16 0 13 -73 117 -107
153 -7 8 -13 17 -13 22 0 8 -29 47 -64 86 -9 9 -16 22 -16 27 0 6 -4 10 -10
10 -5 0 -10 6 -10 14 0 8 -9 21 -20 29 -11 8 -17 17 -13 20 3 4 1 7 -5 7 -7 0
-12 5 -12 10 0 6 -10 22 -22 36 -13 14 -32 35 -43 48 -22 24 -25 30 -25 47 0
5 -4 8 -9 4 -5 -3 -12 3 -15 12 -3 10 -20 33 -36 51 -17 17 -27 32 -23 32 4 0
3 4 -2 8 -15 11 -98 112 -91 112 3 0 -5 10 -17 23 -19 20 -44 49 -134 156 -12
14 -34 40 -48 56 -14 17 -25 34 -25 38 0 5 -4 5 -10 2 -5 -3 -10 -1 -10 4 0 6
-16 27 -35 47 -19 20 -32 40 -29 45 3 5 2 8 -3 7 -4 -2 -8 1 -8 5 0 5 -13 15
-28 23 -15 8 -25 19 -22 24 3 5 -4 11 -15 15 -11 3 -20 10 -20 15 0 5 -10 20
-22 34 -44 47 -58 66 -58 77 0 5 -4 7 -10 4 -5 -3 -10 -2 -10 3 0 5 -16 25
-35 45 -20 21 -33 37 -30 37 3 0 0 6 -7 14 -7 8 -16 12 -20 9 -5 -2 -8 0 -8 5
0 5 -35 46 -78 90 -44 45 -77 84 -74 87 3 3 0 5 -6 5 -14 0 -62 47 -54 54 3 3
-1 6 -9 6 -8 0 -29 16 -48 35 -19 19 -38 35 -42 35 -5 0 -9 5 -9 10 0 11 -119
130 -299 300 -55 52 -101 101 -101 108 0 7 -4 10 -10 7 -5 -3 -10 1 -10 9 0 8
-9 21 -20 29 -11 8 -17 17 -13 20 3 4 -1 7 -11 7 -9 0 -14 5 -11 10 3 6 1 10
-6 10 -7 0 -10 3 -6 6 5 5 0 13 -46 67 -11 12 -25 34 -33 50 -8 15 -19 27 -24
27 -6 0 -10 7 -10 15 0 8 -4 15 -10 15 -5 0 -10 4 -10 10 0 9 -19 36 -48 66
-7 8 -10 14 -5 14 4 0 0 5 -9 11 -10 5 -18 17 -18 24 0 8 -3 15 -7 15 -5 0
-19 17 -33 38 -34 52 -83 116 -95 124 -5 4 -6 8 -2 8 4 0 -4 12 -18 27 -14 15
-25 34 -25 41 0 7 -4 10 -10 7 -5 -3 -10 -1 -10 5 0 11 -9 24 -42 61 -10 10
-18 22 -18 25 0 3 -6 11 -12 18 -7 7 -22 25 -33 40 -11 16 -24 33 -30 40 -5 6
-16 23 -24 39 -8 15 -18 27 -23 27 -5 0 -6 5 -3 10 3 6 2 10 -3 10 -5 0 -12
12 -15 26 -3 20 2 33 20 50 14 13 29 21 34 18 5 -3 9 0 9 5 0 6 5 11 10 11 6
0 26 7 46 15 19 8 38 15 42 15 4 1 16 7 27 14 26 16 118 51 128 48 4 -1 7 3 7
9 0 5 4 8 9 4 5 -3 12 -1 16 5 4 6 11 8 16 5 5 -4 9 -2 9 4 0 5 14 12 30 16
17 4 30 10 30 14 0 4 6 8 13 8 6 0 32 9 57 21 25 11 52 22 60 24 8 2 18 7 21
11 3 4 16 9 27 10 12 1 22 5 22 10 0 4 4 6 9 2 5 -3 17 3 27 12 10 10 20 17
23 16 9 -4 42 7 98 33 28 13 59 24 67 24 9 0 16 5 16 10 0 6 3 9 8 8 15 -6
112 48 118 65 3 9 10 15 15 12 6 -4 6 3 0 17 -13 32 -24 61 -27 73 -1 6 -10
28 -19 50 -32 75 -38 90 -42 108 -2 11 -10 28 -17 39 -8 11 -12 27 -9 34 3 8
0 14 -6 14 -6 0 -10 3 -9 8 2 6 -25 82 -63 177 -7 17 -13 33 -14 38 -2 4 -4 9
-5 12 -1 3 -3 9 -4 14 0 5 -4 13 -8 17 -5 4 -8 15 -8 24 0 9 -11 38 -24 66
-33 69 -41 111 -24 131 11 14 11 16 -1 8 -10 -5 -12 -4 -7 3 4 7 14 12 22 12
8 0 14 5 14 11 0 8 4 8 14 0 10 -8 16 -9 21 -1 3 6 11 8 16 4 11 -6 107 -12
349 -18 222 -6 438 -16 470 -22 14 -2 68 -6 120 -9 52 -3 111 -8 130 -11 19
-3 68 -7 108 -9 63 -3 75 -1 92 18 11 11 21 24 21 29 1 4 2 11 3 16 1 4 6 27
11 52 5 25 9 47 10 50 6 28 16 107 20 155 3 33 8 83 11 110 4 28 8 66 10 85 1
19 5 51 9 70 3 19 8 49 10 66 6 34 17 127 19 159 1 11 4 25 7 30 3 6 7 32 8
60 2 27 5 53 8 58 3 4 6 27 8 50 3 41 9 89 21 172 4 22 8 58 10 80 2 22 5 49
7 60 3 11 8 43 11 70 4 28 10 66 13 85 3 19 6 50 7 68 0 17 3 32 6 32 3 0 6
10 6 23 0 12 4 51 8 87 4 36 9 88 12 115 3 28 10 66 14 85 5 19 12 57 15 84 3
28 7 52 10 54 2 2 0 15 -5 28 -7 17 -6 24 3 24 8 0 7 4 -3 10 -22 14 -27 13
-62 -23z"/>
</g>
</svg>
